<?xml version="1.0" encoding="utf-8"?>
<svg version="1.1" xmlns:xlink="http://www.w3.org/1999/xlink" width="40px" height="40px" xmlns="http://www.w3.org/2000/svg">
  <g transform="matrix(1 0 0 1 -806 -2048 )">
    <path d="M 21 18.0048076923077  L 21 36.0817307692308  L 37 27.6923076923077  L 37 12.4038461538462  L 21 18.0048076923077  Z M 3.22115384615385 9.18269230769231  L 20 15.2884615384615  L 36.7788461538462 9.18269230769231  L 20 3.07692307692307  L 3.22115384615385 9.18269230769231  Z M 39.4471153846154 7.47596153846154  C 39.8157051282051 8.00480769230769  40 8.58974358974359  40 9.23076923076923  L 40 27.6923076923077  C 40 28.2532051282051  39.8557692307692 28.7740384615385  39.5673076923077 29.2548076923077  C 39.2788461538462 29.7355769230769  38.8862179487179 30.1121794871795  38.3894230769231 30.3846153846154  L 21.4663461538462 39.6153846153846  C 21.0176282051282 39.8717948717949  20.5288461538462 40  20 40  C 19.4711538461538 40  18.9823717948718 39.8717948717949  18.5336538461538 39.6153846153846  L 1.61057692307692 30.3846153846154  C 1.11378205128205 30.1121794871795  0.721153846153846 29.7355769230769  0.432692307692308 29.2548076923077  C 0.144230769230769 28.7740384615385  0 28.2532051282051  0 27.6923076923077  L 0 9.23076923076923  C 0 8.58974358974359  0.184294871794872 8.00480769230769  0.552884615384615 7.47596153846154  C 0.921474358974359 6.94711538461538  1.41025641025641 6.57051282051282  2.01923076923077 6.34615384615385  L 18.9423076923077 0.192307692307692  C 19.2948717948718 0.0641025641025594  19.6474358974359 0  20 0  C 20.3525641025641 0  20.7051282051282 0.0641025641025594  21.0576923076923 0.192307692307692  L 37.9807692307692 6.34615384615385  C 38.5897435897436 6.57051282051282  39.0785256410256 6.94711538461538  39.4471153846154 7.47596153846154  Z " fill-rule="nonzero" fill="#579eef" stroke="none" transform="matrix(1 0 0 1 806 2048 )" />
  </g>
</svg>