<?xml version="1.0" encoding="utf-8"?>
<svg version="1.1" xmlns:xlink="http://www.w3.org/1999/xlink" width="35px" height="27px" xmlns="http://www.w3.org/2000/svg">
  <g transform="matrix(1 0 0 1 -364 -7162 )">
    <path d="M 33.046875 10.3742897727273  C 33.7890625 9.87571022727273  34.4401041666667 9.31960227272727  35 8.70596590909091  L 35 23.9318181818182  C 35 24.7755681818182  34.6940104166667 25.4978693181818  34.08203125 26.0987215909091  C 33.4700520833333 26.6995738636364  32.734375 27  31.875 27  L 3.125 27  C 2.265625 27  1.52994791666667 26.6995738636364  0.91796875 26.0987215909091  C 0.305989583333333 25.4978693181818  0 24.7755681818182  0 23.9318181818182  L 0 8.70596590909091  C 0.572916666666667 9.33238636363636  1.23046875 9.88849431818181  1.97265625 10.3742897727273  C 6.68619791666667 13.5191761363636  9.921875 15.7244318181818  11.6796875 16.9900568181818  C 12.421875 17.5269886363636  13.0240885416667 17.9456676136364  13.486328125 18.24609375  C 13.9485677083333 18.5465198863636  14.5638020833333 18.8533380681818  15.33203125 19.1665482954545  C 16.1002604166667 19.4797585227273  16.81640625 19.6363636363636  17.48046875 19.6363636363636  L 17.5 19.6363636363636  L 17.51953125 19.6363636363636  C 18.18359375 19.6363636363636  18.8997395833333 19.4797585227273  19.66796875 19.1665482954545  C 20.4361979166667 18.8533380681818  21.0514322916667 18.5465198863636  21.513671875 18.24609375  C 21.9759114583333 17.9456676136364  22.578125 17.5269886363636  23.3203125 16.9900568181818  C 25.5338541666667 15.4176136363636  28.7760416666667 13.2123579545455  33.046875 10.3742897727273  Z M 34.072265625 0.901278409090908  C 34.6907552083333 1.50213068181818  35 2.22443181818182  35 3.06818181818182  C 35 4.078125  34.6809895833333 5.04332386363636  34.04296875 5.96377840909091  C 33.4049479166667 6.88423295454546  32.6106770833333 7.67045454545455  31.66015625 8.32244318181818  C 26.7643229166667 11.6590909090909  23.7174479166667 13.7365056818182  22.51953125 14.5546875  C 22.3893229166667 14.6441761363636  22.1126302083333 14.8391335227273  21.689453125 15.1395596590909  C 21.2662760416667 15.4399857954545  20.9147135416667 15.6828835227273  20.634765625 15.8682528409091  C 20.3548177083333 16.0536221590909  20.0162760416667 16.2613636363636  19.619140625 16.4914772727273  C 19.2220052083333 16.7215909090909  18.84765625 16.8941761363636  18.49609375 17.0092329545455  C 18.14453125 17.1242897727273  17.8190104166667 17.1818181818182  17.51953125 17.1818181818182  L 17.5 17.1818181818182  L 17.48046875 17.1818181818182  C 17.1809895833333 17.1818181818182  16.85546875 17.1242897727273  16.50390625 17.0092329545455  C 16.15234375 16.8941761363636  15.7779947916667 16.7215909090909  15.380859375 16.4914772727273  C 14.9837239583333 16.2613636363636  14.6451822916667 16.0536221590909  14.365234375 15.8682528409091  C 14.0852864583333 15.6828835227273  13.7337239583333 15.4399857954545  13.310546875 15.1395596590909  C 12.8873697916667 14.8391335227273  12.6106770833333 14.6441761363636  12.48046875 14.5546875  C 11.2955729166667 13.7365056818182  9.58984375 12.5699573863636  7.36328125 11.0550426136364  C 5.13671875 9.54012784090909  3.80208333333333 8.62926136363636  3.359375 8.32244318181818  C 2.55208333333333 7.78551136363636  1.79036458333333 7.04723011363636  1.07421875 6.10759943181818  C 0.358072916666667 5.16796875  0 4.29545454545455  0 3.49005681818182  C 0 2.49289772727273  0.270182291666667 1.66193181818181  0.810546875 0.997159090909092  C 1.35091145833333 0.332386363636361  2.12239583333333 0  3.125 0  L 31.875 0  C 32.7213541666667 0  33.4537760416667 0.300426136363633  34.072265625 0.901278409090908  Z " fill-rule="nonzero" fill="#ffffff" stroke="none" transform="matrix(1 0 0 1 364 7162 )" />
  </g>
</svg>