<?xml version="1.0" encoding="utf-8"?>
<svg version="1.1" xmlns:xlink="http://www.w3.org/1999/xlink" width="35px" height="36px" xmlns="http://www.w3.org/2000/svg">
  <g transform="matrix(1 0 0 1 -364 -7269 )">
    <path d="M 0 25.5535714285714  C 0 21.8705357142857  1.67425968109339 18.75  5.02277904328018 16.1919642857143  C 4.916476841306 15.9375  4.86332574031891 15.5892857142857  4.86332574031891 15.1473214285714  C 4.86332574031891 14.8794642857143  4.93640850417616 14.5513392857143  5.08257403189066 14.1629464285714  C 5.22873955960516 13.7745535714286  5.38819286256644 13.4732142857143  5.56093394077449 13.2589285714286  C 5.54764616552772 12.9642857142857  5.59747532270311 12.609375  5.71042141230068 12.1941964285714  C 5.82336750189825 11.7790178571429  5.97285497342445 11.4910714285714  6.15888382687927 11.3303571428571  C 6.15888382687927 9.46875  6.77344343204252 7.53683035714285  8.00256264236902 5.53459821428572  C 9.23168185269552 3.53236607142857  10.6767274107821 2.12946428571429  12.3376993166287 1.32589285714286  C 14.1847000759301 0.441964285714285  16.3373196659074 0  18.7955580865604 0  C 20.5628321943812 0  22.330106302202 0.368303571428576  24.0973804100228 1.10491071428571  C 24.7484813971147 1.38616071428571  25.3464312832194 1.70758928571429  25.8912300683371 2.06919642857143  C 26.4360288534548 2.43080357142857  26.9077448747153 2.80580357142857  27.3063781321185 3.19419642857143  C 27.7050113895216 3.58258928571428  28.0704252088079 4.03794642857143  28.4026195899772 4.56026785714286  C 28.7348139711465 5.08258928571428  29.0138572513288 5.578125  29.2397494305239 6.046875  C 29.4656416097191 6.515625  29.6815679574791 7.08147321428572  29.8875284738041 7.74441964285714  C 30.0934889901291 8.40736607142857  30.2629081245254 9.00669642857143  30.3957858769932 9.54241071428572  C 30.5286636294609 10.078125  30.6748291571754 10.734375  30.8342824601367 11.5111607142857  L 30.8542141230068 11.6116071428571  C 31.5850417615793 12.7232142857143  31.9504555808656 13.7276785714286  31.9504555808656 14.625  C 31.9504555808656 14.8125  31.8906605922551 15.0803571428571  31.7710706150342 15.4285714285714  C 31.6514806378132 15.7767857142857  31.5916856492027 16.03125  31.5916856492027 16.1919642857143  C 31.5916856492027 16.2053571428571  31.6016514806378 16.2287946428571  31.621583143508 16.2622767857143  C 31.6415148063781 16.2957589285714  31.66476841306 16.3292410714286  31.6913439635535 16.3627232142857  C 31.7179195140471 16.3962053571429  31.7312072892938 16.4196428571429  31.7312072892938 16.4330357142857  C 32.7543659832954 17.9598214285714  33.5549544419134 19.3962053571429  34.1329726651481 20.7421875  C 34.7109908883827 22.0881696428571  35 23.484375  35 24.9308035714286  C 35 25.5066964285714  34.870444191344 26.1763392857143  34.6113325740319 26.9397321428571  C 34.3522209567198 27.703125  33.9834851936219 28.0848214285714  33.505125284738 28.0848214285714  C 33.3855353075171 28.0848214285714  33.2559794988611 28.0345982142857  33.1164578587699 27.9341517857143  C 32.9769362186788 27.8337053571429  32.8507023538345 27.7165178571429  32.7377562642369 27.5825892857143  C 32.6248101746393 27.4486607142857  32.498576309795 27.2745535714286  32.3590546697039 27.0602678571429  C 32.2195330296128 26.8459821428571  32.1132308276386 26.6685267857143  32.0401480637813 26.5279017857143  C 31.9670652999241 26.3872767857143  31.8773728170084 26.2131696428571  31.7710706150342 26.0055803571429  C 31.66476841306 25.7979910714286  31.6049734244495 25.6808035714286  31.5916856492027 25.6540178571429  C 31.578397873956 25.640625  31.5584662110858 25.6339285714286  31.5318906605923 25.6339285714286  L 31.4322323462415 25.7142857142857  C 30.6482536066818 27.7767857142857  29.7712604403948 29.2700892857143  28.8012528473804 30.1941964285714  C 29.0670083523159 30.4620535714286  29.4756074411541 30.7198660714286  30.0270501138952 30.9676339285714  C 30.5784927866363 31.2154017857143  31.03692103265 31.4933035714286  31.4023348519362 31.8013392857143  C 31.7677486712225 32.109375  32.0036066818527 32.5446428571429  32.1099088838269 33.1071428571429  C 32.0833333333333 33.1607142857143  32.0567577828398 33.2678571428571  32.0301822323462 33.4285714285714  C 32.0036066818527 33.5892857142857  31.957099468489 33.7098214285714  31.8906605922551 33.7901785714286  C 31.0402429764617 35.0892857142857  29.0337889141989 35.7388392857143  25.871298405467 35.7388392857143  C 25.167046317388 35.7388392857143  24.4328967350038 35.6785714285714  23.6688496583144 35.5580357142857  C 22.9048025816249 35.4375  22.253701594533 35.3035714285714  21.7155466970387 35.15625  C 21.1773917995444 35.0089285714286  20.4831055429005 34.8080357142857  19.6326879271071 34.5535714285714  C 19.4333712984055 34.4866071428571  19.2805618830676 34.4397321428571  19.1742596810934 34.4129464285714  C 18.9882308276386 34.359375  18.6826119969628 34.3292410714286  18.2574031890661 34.3225446428571  C 17.8321943811693 34.3158482142857  17.5664388762339 34.3058035714286  17.4601366742597 34.2924107142857  C 16.915337889142 34.8950892857143  16.0682422171602 35.3303571428571  14.9188496583144 35.5982142857143  C 13.7694570994685 35.8660714285714  12.6499620349279 36  11.5603644646925 36  C 11.0952923310554 36  10.6368640850418 35.9899553571429  10.1850797266515 35.9698660714286  C 9.7332953682612 35.9497767857143  9.11541381928626 35.8895089285714  8.33143507972665 35.7890625  C 7.54745634016705 35.6886160714286  6.87642369020501 35.5513392857143  6.31833712984055 35.3772321428571  C 5.76025056947608 35.203125  5.26528094153379 34.9352678571429  4.83342824601367 34.5736607142857  C 4.40157555049355 34.2120535714286  4.18564920273349 33.7834821428571  4.18564920273349 33.2879464285714  C 4.18564920273349 32.7522321428571  4.25208807896735 32.3537946428571  4.38496583143508 32.0926339285714  C 4.51784358390281 31.8314732142857  4.79024297646166 31.5066964285714  5.20216400911162 31.1183035714286  C 5.34832953682612 31.0915178571429  5.61740698557327 31.0044642857143  6.00939635535308 30.8571428571429  C 6.40138572513288 30.7098214285714  6.73025816249051 30.6294642857143  6.99601366742597 30.6160714285714  C 7.04916476841306 30.6160714285714  7.14217919514047 30.6026785714286  7.2750569476082 30.5758928571429  C 7.30163249810175 30.5491071428571  7.31492027334852 30.5223214285714  7.31492027334852 30.4955357142857  L 7.2750569476082 30.4352678571429  C 6.6372437357631 30.2879464285714  5.91970387243736 29.5814732142857  5.12243735763098 28.3158482142857  C 4.3251708428246 27.0502232142857  3.84016704631739 26.0022321428571  3.66742596810934 25.171875  L 3.56776765375854 25.1116071428571  C 3.51461655277145 25.1116071428571  3.43488990129081 25.2455357142857  3.32858769931663 25.5133928571429  C 3.08940774487472 26.0625  2.72731586940015 26.5613839285714  2.24231207289294 27.0100446428571  C 1.75730827638573 27.4587053571429  1.24240698557327 27.7098214285714  0.697608200455581 27.7633928571429  L 0.677676537585421 27.7633928571429  C 0.624525436598329 27.7633928571429  0.58466211085801 27.7332589285714  0.558086560364465 27.6729910714286  C 0.531511009870919 27.6127232142857  0.498291571753986 27.5758928571429  0.458428246013667 27.5625  C 0.152809415337889 26.8392857142857  0 26.1696428571429  0 25.5535714285714  Z " fill-rule="nonzero" fill="#ffffff" stroke="none" transform="matrix(1 0 0 1 364 7269 )" />
  </g>
</svg>