<svg width="2879.000000" height="910.033447" viewBox="0 0 2879 910.033" fill="none" xmlns="http://www.w3.org/2000/svg" xmlns:xlink="http://www.w3.org/1999/xlink">
	<desc>
			Created with Pixso.
	</desc>
	<defs/>
	<path id="bgstart1" d="M0.5 909.53L2878.5 909.53C2878.5 909.53 2878.5 29.03 2878.5 2.03C2878.5 -24.97 2525 313.53 2151.5 261.53C1778 209.53 1647 224.53 1373 322.03C1099 419.53 688.2 728.73 341 419.53C289.83 372.53 150.1 303.43 0.5 403.03L0.5 909.53Z" fill="#FFFFFF" fill-opacity="1.000000" fill-rule="evenodd"/>
	<path id="bgstart1" d="M2878.5 909.53C2878.5 909.53 2878.5 29.03 2878.5 2.03C2878.5 -24.97 2525 313.53 2151.5 261.53C1778 209.53 1647 224.53 1373 322.03C1099 419.53 688.2 728.73 341 419.53C289.83 372.53 150.1 303.43 0.5 403.03L0.5 909.53L2878.5 909.53Z" stroke="#FFFFFF" stroke-opacity="1.000000" stroke-width="1.000000"/>
</svg>
