<?xml version="1.0" encoding="utf-8"?>
<svg version="1.1" xmlns:xlink="http://www.w3.org/1999/xlink" width="48px" height="40px" xmlns="http://www.w3.org/2000/svg">
  <g transform="matrix(1 0 0 1 -802 -1905 )">
    <path d="M 45.5510204081633 7.99479166666667  C 46.280912364946 8.25520833333334  46.8475390156062 8.62847222222222  47.2509003601441 9.11458333333334  C 48.0192076830732 10.1041666666667  48.1920768307323 11.2239583333333  47.7695078031213 12.4739583333333  L 39.8463385354142 36.0677083333333  C 39.4813925570228 37.1788194444444  38.7466986794718 38.1119791666667  37.6422569027611 38.8671875  C 36.5378151260504 39.6223958333333  35.3613445378151 40  34.1128451380552 40  L 7.51980792316927 40  C 6.04081632653061 40  4.61464585834334 39.5355902777778  3.24129651860744 38.6067708333333  C 1.86794717887155 37.6779513888889  0.912364945978392 36.5364583333333  0.374549819927971 35.1822916666667  C -0.0864345738295318 34.0190972222222  -0.105642256902761 32.9166666666667  0.316926770708283 31.875  C 0.316926770708283 31.8055555555556  0.345738295318127 31.5711805555556  0.403361344537815 31.171875  C 0.460984393757503 30.7725694444444  0.499399759903962 30.4513888888889  0.518607442977191 30.2083333333333  C 0.53781512605042 30.0694444444444  0.509003601440576 29.8828125  0.432172869147659 29.6484375  C 0.355342136854742 29.4140625  0.326530612244898 29.2447916666667  0.345738295318127 29.140625  C 0.384153661464586 28.9496527777778  0.460984393757503 28.7673611111111  0.576230492196879 28.59375  C 0.691476590636255 28.4201388888889  0.849939975990396 28.2161458333333  1.0516206482593 27.9817708333333  C 1.25330132052821 27.7473958333333  1.41176470588235 27.5434027777778  1.52701080432173 27.3697916666667  C 1.968787515006 26.7100694444444  2.40096038415366 25.9157986111111  2.82352941176471 24.9869791666667  C 3.24609843937575 24.0581597222222  3.53421368547419 23.2638888888889  3.68787515006002 22.6041666666667  C 3.74549819927971 22.4305555555556  3.75030012004802 22.1701388888889  3.70228091236495 21.8229166666667  C 3.65426170468187 21.4756944444444  3.64945978391357 21.2326388888889  3.68787515006002 21.09375  C 3.74549819927971 20.9027777777778  3.90876350540216 20.6597222222222  4.17767106842737 20.3645833333333  C 4.44657863145258 20.0694444444444  4.60984393757503 19.8697916666667  4.66746698679472 19.765625  C 5.07082833133253 19.140625  5.47418967587035 18.3420138888889  5.87755102040816 17.3697916666667  C 6.28091236494598 16.3975694444444  6.52100840336135 15.6163194444444  6.59783913565426 15.0260416666667  C 6.61704681872749 14.8697916666667  6.59303721488595 14.5920138888889  6.52581032412965 14.1927083333333  C 6.45858343337335 13.7934027777778  6.46338535414166 13.5503472222222  6.54021608643457 13.4635416666667  C 6.61704681872749 13.2378472222222  6.82833133253301 12.9730902777778  7.17406962785114 12.6692708333333  C 7.51980792316927 12.3654513888889  7.73109243697479 12.1701388888889  7.80792316926771 12.0833333333333  C 8.17286914765906 11.6319444444444  8.58103241296519 10.8984375  9.03241296518607 9.8828125  C 9.48379351740696 8.8671875  9.74789915966387 8.02951388888889  9.82472989195678 7.36979166666667  C 9.84393757503001 7.23090277777777  9.81512605042017 7.00954861111111  9.73829531812725 6.70572916666667  C 9.66146458583433 6.40190972222222  9.6422569027611 6.171875  9.68067226890756 6.015625  C 9.71908763505402 5.87673611111111  9.80552220888356 5.72048611111111  9.93997599039616 5.546875  C 10.0744297719088 5.37326388888889  10.2472989195678 5.17361111111111  10.4585834333733 4.94791666666667  C 10.6698679471789 4.72222222222222  10.8331332533013 4.53993055555555  10.9483793517407 4.40104166666667  C 11.1020408163265 4.19270833333333  11.2605042016807 3.92795138888889  11.4237695078031 3.60677083333333  C 11.5870348139256 3.28559027777777  11.7310924369748 2.98177083333333  11.8559423769508 2.6953125  C 11.9807923169268 2.40885416666667  12.1344537815126 2.09635416666667  12.3169267707083 1.7578125  C 12.499399759904 1.41927083333333  12.6866746698679 1.14149305555555  12.8787515006002 0.924479166666665  C 13.0708283313325 0.707465277777772  13.3253301320528 0.503472222222219  13.6422569027611 0.3125  C 13.9591836734694 0.121527777777772  14.3049219687875 0.0217013888888884  14.6794717887155 0.0130208333333348  C 15.0540216086435 0.00434027777777235  15.5102040816327 0.0520833333333348  16.0480192076831 0.15625  L 16.0192076830732 0.234375  C 16.7490996398559 0.078125  17.2388955582233 0  17.4885954381753 0  L 39.4141656662665 0  C 40.8355342136855 0  41.9303721488595 0.486111111111107  42.6986794717887 1.45833333333333  C 43.4669867947179 2.43055555555555  43.639855942377 3.55902777777777  43.2172869147659 4.84375  L 35.3229291716687 28.4375  C 34.6314525810324 30.5034722222222  33.9447779111645 31.8359375  33.2629051620648 32.4348958333333  C 32.5810324129652 33.0338541666667  31.3469387755102 33.3333333333333  29.5606242496999 33  L 4.5234093637455 33  C 4.00480192076831 33.3333333333333  3.63985594237695 33.4635416666667  3.42857142857143 33.7239583333333  C 3.21728691476591 34.0017361111111  3.20768307322929 34.375  3.39975990396158 34.84375  C 3.86074429771909 36.0590277777778  5.2436974789916 36.6666666666667  7.54861944777911 36  L 34.1416566626651 36  C 34.6986794717887 36.6666666666667  35.2364945978391 36.5321180555556  35.7551020408163 36.2630208333333  C 36.2737094837935 35.9939236111111  36.609843937575 35.6336805555556  36.7635054021609 35.1822916666667  L 45.406962785114 9.47916666666666  C 45.5414165666267 9.09722222222222  45.5894357743097 8.60243055555555  45.5510204081633 7.99479166666667  Z M 17.2004801920768 7.5  L 16.5954381752701 9.16666666666666  C 16.5186074429772 9.39236111111111  16.5378151260504 9.58767361111111  16.6530612244898 9.75260416666666  C 16.7683073229292 9.91753472222222  16.9603841536615 10  17.2292917166867 10  L 34.7466986794718 10  C 34.9963985594238 10  35.2412965186074 9.91753472222222  35.4813925570228 9.75260416666666  C 35.7214885954382 9.58767361111111  35.8799519807923 9.39236111111111  35.9567827130852 9.16666666666666  L 36.561824729892 7.5  C 36.6386554621849 7.27430555555555  36.6194477791116 7.07899305555555  36.5042016806723 6.9140625  C 36.3889555822329 6.74913194444444  36.1968787515006 6.66666666666667  35.9279711884754 7  L 18.4105642256903 7  C 18.1608643457383 6.66666666666667  17.9159663865546 6.74913194444444  17.6758703481393 6.9140625  C 17.4357743097239 7.07899305555555  17.2773109243698 7.27430555555555  17.2004801920768 7.5  Z M 14.8091236494598 14.1666666666667  L 14.2040816326531 15.8333333333333  C 14.1272509003601 16.0590277777778  14.1464585834334 16.2543402777778  14.2617046818728 16.4192708333333  C 14.3769507803121 16.5842013888889  14.5690276110444 16.6666666666667  14.8379351740696 17  L 32.3553421368547 17  C 32.6050420168067 16.6666666666667  32.8499399759904 16.5842013888889  33.0900360144058 16.4192708333333  C 33.3301320528211 16.2543402777778  33.4885954381753 16.0590277777778  33.5654261704682 15.8333333333333  L 34.1704681872749 14.1666666666667  C 34.2472989195678 13.9409722222222  34.2280912364946 13.7456597222222  34.1128451380552 13.5807291666667  C 33.9975990396158 13.4157986111111  33.8055222088836 13.3333333333333  33.5366146458583 14  L 16.0192076830732 14  C 15.7695078031213 13.3333333333333  15.5246098439376 13.4157986111111  15.2845138055222 13.5807291666667  C 15.0444177671068 13.7456597222222  14.8859543817527 13.9409722222222  14.8091236494598 14.1666666666667  Z " fill-rule="nonzero" fill="#579eef" stroke="none" transform="matrix(1 0 0 1 802 1905 )" />
  </g>
</svg>