<?xml version="1.0" encoding="utf-8"?>
<svg version="1.1" xmlns:xlink="http://www.w3.org/1999/xlink" width="48px" height="40px" xmlns="http://www.w3.org/2000/svg">
  <g transform="matrix(1 0 0 1 -802 -1977 )">
    <path d="M 40.0625375826819 21.9602272727273  C 40.4473842453398 22.1117424242424  40.6398075766687 22.3863636363636  40.6398075766687 22.7840909090909  L 40.6398075766687 31.8181818181818  C 40.6398075766687 34.0719696969697  39.826819001804 35.999053030303  38.2008418520746 37.5994318181818  C 36.5748647023452 39.1998106060606  34.6169573060734 40  32.3271196632592 40  L 8.3126879134095 40  C 6.02285027059531 40  4.06494287432351 39.1998106060606  2.43896572459411 37.5994318181818  C 0.812988574864702 35.999053030303  0 34.0719696969697  0 31.8181818181818  L 0 8.18181818181818  C 0 5.9280303030303  0.812988574864702 4.00094696969697  2.43896572459411 2.40056818181818  C 4.06494287432351 0.80018939393939  6.02285027059531 0  8.3126879134095 0  L 32.3271196632592 0  C 33.5393866506314 0  34.6650631389056 0.236742424242422  35.7041491280818 0.710227272727271  C 35.9927841250752 0.842803030303028  36.1659651232712 1.06060606060606  36.2236921226699 1.36363636363636  C 36.2814191220686 1.68560606060606  36.1948286229705 1.96022727272727  35.9639206253758 2.1875  L 34.5496091401082 3.57954545454545  C 34.3571858087793 3.76893939393939  34.1358989777511 3.86363636363636  33.8857486470234 3.86363636363636  C 33.8280216476248 3.86363636363636  33.7414311485268 3.84469696969697  33.6259771497294 3.80681818181818  C 33.1834034876729 3.69318181818182  32.7504509921828 3.63636363636364  32.3271196632592 4  L 8.3126879134095 4  C 7.04269392663861 3.63636363636364  5.95550210463019 4.08143939393939  5.05111244738425 4.97159090909091  C 4.1467227901383 5.86174242424242  3.69452796151533 6.93181818181818  4 8.18181818181818  L 4 31.8181818181818  C 3.69452796151533 33.0681818181818  4.1467227901383 34.1382575757576  5.05111244738425 35.0284090909091  C 5.95550210463019 35.9185606060606  7.04269392663861 36.3636363636364  8.3126879134095 36  L 32.3271196632592 36  C 33.5971136500301 36.3636363636364  34.6843054720385 35.9185606060606  35.5886951292844 35.0284090909091  C 36.4930847865304 34.1382575757576  36.9452796151533 33.0681818181818  36.9452796151533 31.8181818181818  L 36.9452796151533 24.6022727272727  C 36.9452796151533 24.3560606060606  37.0318701142513 24.1477272727273  37.2050511124474 23.9772727272727  L 39.0523150932051 22.1590909090909  C 39.244738424534 21.969696969697  39.4660252555622 21.875  39.7161755862898 21.875  C 39.8316295850872 21.875  39.9470835838845 21.9034090909091  40.0625375826819 21.9602272727273  Z M 48 7.27272727272727  C 48 7.89772727272727  47.7690920024053 8.4375  47.3072760072159 8.89204545454545  L 23.8123872519543 32.0170454545455  C 23.3505712567649 32.4715909090909  22.8021647624775 32.6988636363636  22.167167769092 32.6988636363636  C 21.5321707757066 32.6988636363636  20.9837642814191 32.4715909090909  20.5219482862297 32.0170454545455  L 8.11064341551413 19.8011363636364  C 7.64882742032471 19.3465909090909  7.41791942273001 18.8068181818182  7.41791942273001 18.1818181818182  C 7.41791942273001 17.5568181818182  7.64882742032471 17.0170454545455  8.11064341551413 16.5625  L 11.2856283824414 13.4375  C 11.7474443776308 12.9829545454545  12.2958508719182 12.7556818181818  12.9308478653037 12.7556818181818  C 13.5658448586891 12.7556818181818  14.1142513529765 12.9829545454545  14.576067348166 13.4375  L 22.167167769092 20.9090909090909  L 40.841852074564 2.52840909090909  C 41.3036680697535 2.07386363636364  41.8520745640409 1.84659090909091  42.4870715574263 1.84659090909091  C 43.1220685508118 1.84659090909091  43.6704750450992 2.07386363636364  44.1322910402886 2.52840909090909  L 47.3072760072159 5.65340909090909  C 47.7690920024053 6.10795454545455  48 6.64772727272727  48 7.27272727272727  Z " fill-rule="nonzero" fill="#579eef" stroke="none" transform="matrix(1 0 0 1 802 1977 )" />
  </g>
</svg>